<svg width="159" height="31" viewBox="0 0 159 31" fill="none" xmlns="http://www.w3.org/2000/svg">
<path d="M9.224 24V14.848L10.408 17.984L0.552 1.6H6.056L13.608 14.176H10.44L18.024 1.6H23.112L13.256 17.984L14.408 14.848V24H9.224ZM31.2148 24.256C29.3801 24.256 27.7481 23.872 26.3188 23.104C24.9108 22.336 23.7908 21.2907 22.9588 19.968C22.1481 18.624 21.7428 17.0987 21.7428 15.392C21.7428 13.664 22.1481 12.1387 22.9588 10.816C23.7908 9.472 24.9108 8.42667 26.3188 7.68C27.7481 6.912 29.3801 6.528 31.2148 6.528C33.0281 6.528 34.6494 6.912 36.0788 7.68C37.5081 8.42667 38.6281 9.46133 39.4388 10.784C40.2494 12.1067 40.6548 13.6427 40.6548 15.392C40.6548 17.0987 40.2494 18.624 39.4388 19.968C38.6281 21.2907 37.5081 22.336 36.0788 23.104C34.6494 23.872 33.0281 24.256 31.2148 24.256ZM31.2148 20.16C32.0468 20.16 32.7934 19.968 33.4548 19.584C34.1161 19.2 34.6388 18.656 35.0228 17.952C35.4068 17.2267 35.5988 16.3733 35.5988 15.392C35.5988 14.3893 35.4068 13.536 35.0228 12.832C34.6388 12.128 34.1161 11.584 33.4548 11.2C32.7934 10.816 32.0468 10.624 31.2148 10.624C30.3828 10.624 29.6361 10.816 28.9748 11.2C28.3134 11.584 27.7801 12.128 27.3748 12.832C26.9908 13.536 26.7988 14.3893 26.7988 15.392C26.7988 16.3733 26.9908 17.2267 27.3748 17.952C27.7801 18.656 28.3134 19.2 28.9748 19.584C29.6361 19.968 30.3828 20.16 31.2148 20.16ZM51.2555 24.256C49.8262 24.256 48.5462 23.9787 47.4155 23.424C46.3062 22.8693 45.4422 22.0267 44.8235 20.896C44.2048 19.744 43.8955 18.2827 43.8955 16.512V6.784H48.8875V15.776C48.8875 17.2053 49.1862 18.2613 49.7835 18.944C50.4022 19.6053 51.2662 19.936 52.3755 19.936C53.1435 19.936 53.8262 19.776 54.4235 19.456C55.0208 19.1147 55.4902 18.6027 55.8315 17.92C56.1728 17.216 56.3435 16.3413 56.3435 15.296V6.784H61.3355V24H56.5995V19.264L57.4635 20.64C56.8875 21.8347 56.0342 22.7413 54.9035 23.36C53.7942 23.9573 52.5782 24.256 51.2555 24.256ZM65.9603 24V6.784H70.7283V11.648L70.0563 10.24C70.5683 9.024 71.3896 8.10667 72.5203 7.488C73.6509 6.848 75.0269 6.528 76.6483 6.528V11.136C76.4349 11.1147 76.2429 11.104 76.0723 11.104C75.9016 11.0827 75.7203 11.072 75.5283 11.072C74.1629 11.072 73.0536 11.4667 72.2003 12.256C71.3683 13.024 70.9523 14.2293 70.9523 15.872V24H65.9603Z" fill="#2A90D9"/>
<path d="M81.317 24.256C80.4637 24.256 79.7277 23.968 79.109 23.392C78.5117 22.7947 78.213 22.0373 78.213 21.12C78.213 20.2027 78.5117 19.4667 79.109 18.912C79.7277 18.336 80.4637 18.048 81.317 18.048C82.1917 18.048 82.9277 18.336 83.525 18.912C84.1223 19.4667 84.421 20.2027 84.421 21.12C84.421 22.0373 84.1223 22.7947 83.525 23.392C82.9277 23.968 82.1917 24.256 81.317 24.256ZM87.804 24V0.255999H92.796V24H87.804ZM105.621 24.256C103.786 24.256 102.154 23.872 100.725 23.104C99.317 22.336 98.197 21.2907 97.365 19.968C96.5543 18.624 96.149 17.0987 96.149 15.392C96.149 13.664 96.5543 12.1387 97.365 10.816C98.197 9.472 99.317 8.42667 100.725 7.68C102.154 6.912 103.786 6.528 105.621 6.528C107.434 6.528 109.056 6.912 110.485 7.68C111.914 8.42667 113.034 9.46133 113.845 10.784C114.656 12.1067 115.061 13.6427 115.061 15.392C115.061 17.0987 114.656 18.624 113.845 19.968C113.034 21.2907 111.914 22.336 110.485 23.104C109.056 23.872 107.434 24.256 105.621 24.256ZM105.621 20.16C106.453 20.16 107.2 19.968 107.861 19.584C108.522 19.2 109.045 18.656 109.429 17.952C109.813 17.2267 110.005 16.3733 110.005 15.392C110.005 14.3893 109.813 13.536 109.429 12.832C109.045 12.128 108.522 11.584 107.861 11.2C107.2 10.816 106.453 10.624 105.621 10.624C104.789 10.624 104.042 10.816 103.381 11.2C102.72 11.584 102.186 12.128 101.781 12.832C101.397 13.536 101.205 14.3893 101.205 15.392C101.205 16.3733 101.397 17.2267 101.781 17.952C102.186 18.656 102.72 19.2 103.381 19.584C104.042 19.968 104.789 20.16 105.621 20.16ZM126.494 30.464C124.872 30.464 123.304 30.2613 121.79 29.856C120.296 29.472 119.048 28.8853 118.046 28.096L120.03 24.512C120.755 25.1093 121.672 25.5787 122.782 25.92C123.912 26.2827 125.022 26.464 126.11 26.464C127.88 26.464 129.16 26.0693 129.95 25.28C130.76 24.4907 131.166 23.3173 131.166 21.76V19.168L131.486 14.848L131.422 10.496V6.784H136.158V21.12C136.158 24.32 135.326 26.6773 133.662 28.192C131.998 29.7067 129.608 30.464 126.494 30.464ZM125.726 23.168C124.126 23.168 122.675 22.8267 121.374 22.144C120.094 21.44 119.059 20.4693 118.27 19.232C117.502 17.9733 117.118 16.512 117.118 14.848C117.118 13.1627 117.502 11.7013 118.27 10.464C119.059 9.20533 120.094 8.23467 121.374 7.552C122.675 6.86933 124.126 6.528 125.726 6.528C127.176 6.528 128.456 6.82667 129.566 7.424C130.675 8 131.539 8.90667 132.158 10.144C132.776 11.36 133.086 12.928 133.086 14.848C133.086 16.7467 132.776 18.3147 132.158 19.552C131.539 20.768 130.675 21.6747 129.566 22.272C128.456 22.8693 127.176 23.168 125.726 23.168ZM126.718 19.072C127.592 19.072 128.371 18.9013 129.054 18.56C129.736 18.1973 130.27 17.696 130.654 17.056C131.038 16.416 131.23 15.68 131.23 14.848C131.23 13.9947 131.038 13.2587 130.654 12.64C130.27 12 129.736 11.5093 129.054 11.168C128.371 10.8053 127.592 10.624 126.718 10.624C125.843 10.624 125.064 10.8053 124.382 11.168C123.699 11.5093 123.155 12 122.75 12.64C122.366 13.2587 122.174 13.9947 122.174 14.848C122.174 15.68 122.366 16.416 122.75 17.056C123.155 17.696 123.699 18.1973 124.382 18.56C125.064 18.9013 125.843 19.072 126.718 19.072ZM148.996 24.256C147.161 24.256 145.529 23.872 144.1 23.104C142.692 22.336 141.572 21.2907 140.74 19.968C139.929 18.624 139.524 17.0987 139.524 15.392C139.524 13.664 139.929 12.1387 140.74 10.816C141.572 9.472 142.692 8.42667 144.1 7.68C145.529 6.912 147.161 6.528 148.996 6.528C150.809 6.528 152.431 6.912 153.86 7.68C155.289 8.42667 156.409 9.46133 157.22 10.784C158.031 12.1067 158.436 13.6427 158.436 15.392C158.436 17.0987 158.031 18.624 157.22 19.968C156.409 21.2907 155.289 22.336 153.86 23.104C152.431 23.872 150.809 24.256 148.996 24.256ZM148.996 20.16C149.828 20.16 150.575 19.968 151.236 19.584C151.897 19.2 152.42 18.656 152.804 17.952C153.188 17.2267 153.38 16.3733 153.38 15.392C153.38 14.3893 153.188 13.536 152.804 12.832C152.42 12.128 151.897 11.584 151.236 11.2C150.575 10.816 149.828 10.624 148.996 10.624C148.164 10.624 147.417 10.816 146.756 11.2C146.095 11.584 145.561 12.128 145.156 12.832C144.772 13.536 144.58 14.3893 144.58 15.392C144.58 16.3733 144.772 17.2267 145.156 17.952C145.561 18.656 146.095 19.2 146.756 19.584C147.417 19.968 148.164 20.16 148.996 20.16Z" fill="#EE685F"/>
</svg>
