<svg width="16" height="16" viewBox="0 0 16 16" fill="none" xmlns="http://www.w3.org/2000/svg">
<path d="M15.3188 0.681289C15.2344 0.597335 15.1278 0.539208 15.0116 0.513743C14.8953 0.488278 14.7742 0.496534 14.6625 0.537539L0.912501 5.53754C0.793918 5.58252 0.691825 5.66251 0.619782 5.76689C0.547739 5.87126 0.509155 5.99509 0.509155 6.12191C0.509155 6.24874 0.547739 6.37256 0.619782 6.47694C0.691825 6.58132 0.793918 6.66131 0.912501 6.70629L6.9125 9.10629L9.3125 15.1063C9.35759 15.2197 9.43488 15.3174 9.53484 15.3873C9.63479 15.4573 9.75304 15.4965 9.875 15.5C10.0013 15.4974 10.1239 15.4566 10.2265 15.383C10.3292 15.3094 10.4071 15.2064 10.45 15.0875L15.45 1.33754C15.4926 1.22696 15.5029 1.10656 15.4796 0.990366C15.4564 0.874175 15.4006 0.766983 15.3188 0.681289ZM9.875 13.125L8.13125 8.75004L11.125 5.75629L10.2438 4.87504L7.225 7.89379L2.875 6.12504L13.8313 2.16879L9.875 13.125Z" fill="white"/>
</svg>
